<svg xmlns="http://www.w3.org/2000/svg" viewBox="0 0 64 64" fill="none">
  <defs>
    <linearGradient id="primeGrad" x1="0%" y1="0%" x2="100%" y2="100%">
      <stop offset="0%" style="stop-color:#0066CC"/>
      <stop offset="100%" style="stop-color:#00AAFF"/>
    </linearGradient>
  </defs>
  <rect width="64" height="64" rx="12" fill="url(#primeGrad)"/>
  <path d="M32 12C21 12 12 21 12 32s9 20 20 20 20-9 20-20-9-20-20-20zm0 36c-8.8 0-16-7.2-16-16s7.2-16 16-16 16 7.2 16 16-7.2 16-16 16z" fill="white" fill-opacity="0.9"/>
  <path d="M32 20c-6.6 0-12 5.4-12 12s5.4 12 12 12 12-5.4 12-12-5.4-12-12-12zm0 20c-4.4 0-8-3.6-8-8s3.6-8 8-8 8 3.6 8 8-3.6 8-8 8z" fill="white" fill-opacity="0.8"/>
  <circle cx="32" cy="32" r="4" fill="white"/>
  <path d="M22 32h6M36 32h6M32 22v6M32 36v6" stroke="white" stroke-width="2" stroke-linecap="round" stroke-opacity="0.6"/>
</svg>
